<svg width="64" height="41" viewBox="0 0 64 41" fill="none" xmlns="http://www.w3.org/2000/svg">
<path d="M63.8833 20.1499L52.5124 0.442668C52.2714 0.0187083 51.7314 -0.124101 51.3075 0.116874L44.2966 4.16453C43.8726 4.40551 43.7254 4.9455 43.9708 5.36499L44.8187 6.83767L39.1779 5.73987C36.6029 5.23558 34.3761 5.0526 32.3411 5.32482C30.373 5.58813 28.6103 6.27093 26.9323 7.4937L19.3904 6.65471L20.0285 5.54351C20.274 5.11955 20.1267 4.58402 19.7028 4.33858L12.6919 0.295392C12.2679 0.0499497 11.7279 0.1972 11.487 0.621159L0.116034 20.3284C0.0357091 20.4667 0 20.6184 0 20.7657C0 21.0647 0.151743 21.3548 0.42396 21.5199L7.33665 25.7371C7.75171 25.9915 8.29614 25.8621 8.55052 25.4426C8.56389 25.4248 8.57729 25.4024 8.58623 25.3801L10.0991 22.7561L11.7012 25.1034L11.5093 25.3444C11.5003 25.3533 11.4959 25.3623 11.487 25.3757C10.706 26.4422 10.5766 27.6606 10.8711 28.7048C11.0273 29.2716 11.3129 29.7892 11.6833 30.2043C12.0671 30.6372 12.5491 30.9674 13.0935 31.1414C13.3702 31.2307 13.6603 31.2798 13.9548 31.2798C13.9057 31.9001 13.9995 32.5026 14.2047 33.0426C14.4234 33.6138 14.7715 34.118 15.2222 34.5018C15.6863 34.899 16.2531 35.1623 16.8913 35.2382C17.3732 35.2962 17.8864 35.2471 18.4175 35.0597C18.4532 35.3185 18.5112 35.5684 18.596 35.8005C18.8058 36.3806 19.1539 36.8894 19.6224 37.2642C20.0999 37.648 20.6935 37.889 21.3718 37.9247C21.8002 37.947 22.2599 37.8846 22.7418 37.7194C22.8222 38.0675 22.9605 38.3978 23.148 38.6968C23.4425 39.1743 23.853 39.5848 24.3306 39.8749C24.8125 40.1739 25.3748 40.3613 25.9639 40.4015C26.9725 40.4684 28.0435 40.0936 28.9226 39.0716L29.3555 38.5763C29.9982 38.9199 30.6809 39.2189 31.3861 39.4554C32.3143 39.7678 33.2872 39.9776 34.2779 40.0713C35.6658 40.2007 36.8751 40.0579 37.8123 39.7098C38.4594 39.4688 38.986 39.1252 39.3787 38.6968C39.8027 38.2327 40.057 37.6837 40.1151 37.0634C40.9987 37.1794 41.7707 37.0902 42.4089 36.8626C43.0381 36.6395 43.5379 36.2825 43.8905 35.8406C44.2654 35.3721 44.4662 34.8142 44.4796 34.2251V34.069C45.1579 34.1002 45.7559 33.9663 46.2602 33.7164C46.8225 33.4353 47.2598 33.0158 47.5633 32.5115C47.8578 32.0251 48.023 31.4538 48.0453 30.8648C48.0542 30.5747 48.0319 30.2802 47.9694 29.9901C48.3755 29.999 48.7548 29.9455 49.1029 29.8339C49.7188 29.642 50.2275 29.285 50.6068 28.8164C50.9772 28.3523 51.2182 27.7855 51.2941 27.1607C51.3967 26.3753 51.2405 25.4961 50.7675 24.6482L53.6905 22.2161L55.4132 25.2016C55.4221 25.2239 55.4355 25.2462 55.4488 25.2685C55.7032 25.6836 56.2477 25.8175 56.6627 25.5631L63.5799 21.3459C63.9859 21.0915 64.1199 20.5649 63.8833 20.1499ZM5.87737 21.743C4.88218 21.743 4.0789 20.9398 4.0789 19.9446C4.0789 18.9539 4.88218 18.1461 5.87737 18.1461C6.86808 18.1461 7.67582 18.9539 7.67582 19.9446C7.67582 20.9398 6.86808 21.743 5.87737 21.743ZM14.6376 29.3162C14.2761 29.5215 13.928 29.5527 13.6335 29.459C13.4015 29.3876 13.1872 29.2314 13.0043 29.0306C12.8079 28.8075 12.6562 28.5352 12.5714 28.2318C12.5223 28.0533 12.4955 27.8614 12.4955 27.6695C12.4955 27.2634 12.616 26.8349 12.8927 26.4422L13.455 25.7371L14.7045 24.5367C14.9277 24.318 15.1776 24.1886 15.423 24.1395C15.7086 24.0815 16.0121 24.1127 16.2977 24.2154C16.6057 24.3269 16.8957 24.5188 17.1367 24.7687C17.3286 24.9651 17.4848 25.1972 17.5919 25.4515L14.6376 29.3162ZM18.8548 32.7837C18.1899 33.346 17.5874 33.5379 17.101 33.4799C16.8199 33.4486 16.5744 33.3326 16.3691 33.1586C16.1504 32.9667 15.9764 32.7123 15.8604 32.4088C15.6373 31.8332 15.6506 31.1147 15.9987 30.4408L19.2699 26.17C19.2788 26.1566 19.2877 26.1432 19.2967 26.1299C19.7028 25.5899 20.1222 25.2195 20.573 25.0811C20.9969 24.9472 21.5012 25.0186 22.1081 25.3444C22.1572 25.3712 22.2018 25.398 22.2465 25.4292C22.541 25.6479 22.7686 26.0049 22.8846 26.3887C22.9828 26.7323 22.9917 27.0715 22.8712 27.2991C22.8579 27.3214 22.8445 27.3392 22.8356 27.3571L18.8548 32.7837ZM23.0855 35.555C22.4607 36.0058 21.9118 36.1798 21.4611 36.1575C21.1754 36.1441 20.9255 36.0459 20.7292 35.8853C20.5239 35.7202 20.3632 35.4881 20.2651 35.2159C20.1178 34.8008 20.1133 34.3055 20.2918 33.8191L23.6254 29.2716C23.8754 29.1377 24.1788 29.0975 24.4823 29.1198C24.9419 29.16 25.3793 29.3385 25.6872 29.5795C25.9639 29.7982 26.1335 30.1463 26.2004 30.5122C26.2629 30.8781 26.2138 31.2352 26.0442 31.4672L23.0855 35.555ZM29.5831 35.1177L28.4496 36.9162L27.5883 37.9158C27.1153 38.4647 26.5708 38.6655 26.071 38.6343C25.7854 38.6164 25.5087 38.5182 25.2588 38.3665C25.0089 38.2148 24.7947 38.0051 24.6519 37.773C24.4421 37.4294 24.3663 37.0188 24.5091 36.6038L26.9948 33.172C27.3027 32.9711 27.6463 32.8507 28.0033 32.8685C28.3514 32.8908 28.7308 33.047 29.1324 33.3996C29.4314 33.6628 29.6054 33.9842 29.6768 34.301C29.7438 34.6223 29.7081 34.9213 29.5831 35.1177ZM49.5447 26.942C49.5046 27.2321 49.3974 27.4954 49.2279 27.7052C49.0672 27.906 48.8485 28.0622 48.5763 28.147C48.072 28.3032 47.3982 28.2273 46.5949 27.8034L39.1021 23.18C38.687 22.9256 38.1426 23.0506 37.8837 23.4656C37.6293 23.8807 37.7588 24.4251 38.1738 24.6839L45.6086 29.2716C46.0683 29.7 46.278 30.2355 46.278 30.7398V30.8023C46.2691 31.0879 46.1888 31.3646 46.046 31.5966C45.9121 31.8198 45.7202 32.0072 45.4748 32.1277C45.0062 32.3597 44.3368 32.3821 43.4799 32.0474L36.5271 27.8435C36.1076 27.5891 35.5631 27.723 35.3088 28.1425C35.0588 28.562 35.1927 29.1065 35.6122 29.3608L42.4847 33.5156C42.6454 33.7476 42.7168 33.9797 42.7123 34.1895C42.7123 34.3814 42.6365 34.5732 42.5071 34.7384C42.3553 34.9258 42.1233 35.0864 41.8198 35.1936C41.2307 35.4033 40.4141 35.4122 39.4055 35.0864L34.0592 32.4445C33.6219 32.2259 33.0908 32.4088 32.8766 32.8462C32.6579 33.2835 32.8364 33.8146 33.2782 34.0288L38.3389 36.5368C38.3612 36.6618 38.3702 36.7823 38.3568 36.8938C38.3389 37.1214 38.2407 37.3267 38.0756 37.5052C37.8748 37.7239 37.5803 37.9113 37.1965 38.0541C36.4958 38.3174 35.5542 38.4201 34.4341 38.313C33.5906 38.2327 32.7561 38.0497 31.9484 37.7775C31.4128 37.5989 30.8996 37.3803 30.4043 37.1304L31.0781 36.0593C31.4441 35.4836 31.5735 34.7027 31.4039 33.9306C31.2656 33.2746 30.9085 32.6097 30.2972 32.0697C29.5742 31.436 28.8289 31.1459 28.106 31.1057C28.0658 31.1013 28.0212 31.1013 27.981 31.1013C28.0078 30.8067 27.9944 30.5078 27.9453 30.2132C27.8114 29.4456 27.4187 28.6914 26.7717 28.1872C26.2272 27.7587 25.4685 27.4419 24.6876 27.3615C24.7679 26.8841 24.7233 26.3708 24.5805 25.8844C24.3618 25.157 23.9066 24.4564 23.2907 24.0056C23.1792 23.9208 23.0676 23.8494 22.9471 23.787C21.885 23.2157 20.9255 23.1176 20.0464 23.3898C19.609 23.5281 19.2074 23.7557 18.8325 24.0592C18.7076 23.8762 18.5648 23.7022 18.4086 23.5415C17.9846 23.0997 17.4625 22.7605 16.9002 22.5553C16.32 22.3455 15.6908 22.2786 15.0705 22.408C14.5037 22.524 13.9548 22.8007 13.4773 23.2603L12.9418 23.778L11.0808 21.0513L18.4264 8.32375L25.1562 9.07348L22.1037 11.8894C21.104 12.8132 20.6578 13.7102 20.6221 14.6385C20.5864 15.5533 20.9478 16.4101 21.5682 17.2982C21.5771 17.3116 21.586 17.325 21.5949 17.3339L21.6083 17.3562C21.6172 17.3696 21.6262 17.383 21.6351 17.3919C22.1662 18.1193 22.8757 18.7352 23.7683 18.9806C24.692 19.2395 25.7542 19.1011 26.9144 18.2934C26.9278 18.2845 26.9368 18.2755 26.9501 18.2666L26.9725 18.2532C26.9859 18.2443 26.9948 18.2354 27.0082 18.2264L32.5508 14.2636L48.9824 25.1391C49.4465 25.7595 49.6117 26.4021 49.5447 26.942ZM49.5313 23.3808L33.0239 12.4562H33.0194C32.7249 12.2598 32.3277 12.2554 32.0197 12.474L25.9818 16.7894C25.9728 16.7939 25.9639 16.7984 25.955 16.8028L25.9282 16.8207C25.9193 16.8296 25.9103 16.8341 25.9014 16.8386C25.232 17.3027 24.6831 17.4009 24.2368 17.2759C23.7817 17.1509 23.3845 16.7939 23.0721 16.361L23.0542 16.3387L23.0408 16.3164C23.0319 16.3075 23.0275 16.2986 23.023 16.2896C22.6124 15.7006 22.3714 15.1784 22.3893 14.7098C22.4071 14.2546 22.6794 13.7638 23.2997 13.1925L27.7579 9.08241C29.2529 7.93997 30.8148 7.31072 32.5687 7.07867C34.3939 6.83321 36.4423 7.00726 38.8432 7.47583L45.988 8.86819L52.7623 20.6899L49.5313 23.3808ZM57.881 21.743C56.8903 21.743 56.0826 20.9398 56.0826 19.9446C56.0826 18.9539 56.8903 18.1461 57.881 18.1461C58.8762 18.1461 59.6795 18.9539 59.6795 19.9446C59.6795 20.9398 58.8762 21.743 57.881 21.743Z" fill="#13B499"/>
</svg>
