<svg width="32" height="32" viewBox="0 0 32 32" fill="none" xmlns="http://www.w3.org/2000/svg">
<path d="M27.0216 17.9347C21.0184 15.7114 16.2867 10.9796 14.0633 4.9764C13.9233 4.59641 13.385 4.59641 13.2433 4.9764C11.02 10.9796 6.2882 15.7113 0.284998 17.9347C-0.0949994 18.0747 -0.0949994 18.613 0.284998 18.7547C6.2882 20.978 11.0199 25.7098 13.2433 31.713C13.3833 32.093 13.9216 32.093 14.0633 31.713C16.2866 25.7098 21.0184 20.9781 27.0216 18.7547C27.4016 18.6147 27.4016 18.0764 27.0216 17.9347Z" fill="url(#paint0_linear_302_1821)"/>
<path d="M31.8949 4.96516C29.6416 4.1335 27.8666 2.35848 27.0348 0.104998C26.9831 -0.0349995 26.7781 -0.0349995 26.7281 0.104998C25.8964 2.35831 24.1214 4.13333 21.8679 4.96516C21.7279 5.01682 21.7279 5.22182 21.8679 5.27182C24.1212 6.10348 25.8963 7.8785 26.7281 10.132C26.7798 10.272 26.9848 10.272 27.0348 10.132C27.8664 7.87867 29.6414 6.10365 31.8949 5.27182C32.0349 5.22016 32.0349 5.01516 31.8949 4.96516Z" fill="url(#paint1_linear_302_1821)"/>
<defs>
<linearGradient id="paint0_linear_302_1821" x1="27.3066" y1="18.3447" x2="0" y2="18.3447" gradientUnits="userSpaceOnUse">
<stop stop-color="#006E88"/>
<stop offset="1" stop-color="#13B499"/>
</linearGradient>
<linearGradient id="paint1_linear_302_1821" x1="31.9999" y1="5.11849" x2="21.7629" y2="5.11849" gradientUnits="userSpaceOnUse">
<stop stop-color="#006E88"/>
<stop offset="1" stop-color="#13B499"/>
</linearGradient>
</defs>
</svg>
