<svg width="43" height="42" viewBox="0 0 43 42" fill="none" xmlns="http://www.w3.org/2000/svg">
<rect x="1" y="1" width="40.0251" height="39.0262" rx="19.5131" stroke="url(#paint0_linear_2602_1457)" stroke-width="2"/>
<path d="M33.8775 31.5034C31.9738 28.2122 29.04 25.8521 25.6163 24.7334C27.3098 23.7252 28.6256 22.189 29.3616 20.3606C30.0975 18.5323 30.2129 16.5129 29.6901 14.6126C29.1673 12.7123 28.0351 11.0361 26.4675 9.84156C24.8999 8.64697 22.9835 8 21.0125 8C19.0416 8 17.1252 8.64697 15.5576 9.84156C13.9899 11.0361 12.8578 12.7123 12.335 14.6126C11.8122 16.5129 11.9276 18.5323 12.6635 20.3606C13.3995 22.189 14.7153 23.7252 16.4088 24.7334C12.985 25.8509 10.0513 28.2109 8.14755 31.5034C8.07773 31.6172 8.03142 31.7439 8.01136 31.8759C7.99129 32.0079 7.99787 32.1426 8.0307 32.2721C8.06354 32.4015 8.12196 32.5231 8.20254 32.6296C8.28311 32.7361 8.38419 32.8253 8.49983 32.8921C8.61546 32.9589 8.7433 33.0019 8.87581 33.0185C9.00831 33.035 9.14279 33.0249 9.27132 32.9887C9.39985 32.9525 9.51982 32.8909 9.62415 32.8075C9.72849 32.7242 9.81507 32.6208 9.8788 32.5034C12.2338 28.4334 16.3963 26.0034 21.0125 26.0034C25.6288 26.0034 29.7913 28.4334 32.1463 32.5034C32.21 32.6208 32.2966 32.7242 32.4009 32.8075C32.5053 32.8909 32.6252 32.9525 32.7538 32.9887C32.8823 33.0249 33.0168 33.035 33.1493 33.0185C33.2818 33.0019 33.4096 32.9589 33.5253 32.8921C33.6409 32.8253 33.742 32.7361 33.8226 32.6296C33.9031 32.5231 33.9616 32.4015 33.9944 32.2721C34.0272 32.1426 34.0338 32.0079 34.0137 31.8759C33.9937 31.7439 33.9474 31.6172 33.8775 31.5034ZM14.0125 17.0034C14.0125 15.6189 14.4231 14.2656 15.1923 13.1144C15.9614 11.9633 17.0547 11.0661 18.3338 10.5362C19.6128 10.0064 21.0203 9.86781 22.3782 10.1379C23.736 10.408 24.9833 11.0747 25.9623 12.0537C26.9413 13.0326 27.6079 14.2799 27.878 15.6378C28.1481 16.9956 28.0095 18.4031 27.4797 19.6822C26.9499 20.9613 26.0527 22.0545 24.9015 22.8237C23.7504 23.5929 22.397 24.0034 21.0125 24.0034C19.1566 24.0014 17.3773 23.2633 16.065 21.951C14.7527 20.6386 14.0145 18.8593 14.0125 17.0034Z" fill="url(#paint1_linear_2602_1457)"/>
<defs>
<linearGradient id="paint0_linear_2602_1457" x1="21.0125" y1="0" x2="21.0125" y2="41.0262" gradientUnits="userSpaceOnUse">
<stop stop-color="#006E88"/>
<stop offset="1" stop-color="#13B499"/>
</linearGradient>
<linearGradient id="paint1_linear_2602_1457" x1="21.0125" y1="8" x2="21.0125" y2="33.0262" gradientUnits="userSpaceOnUse">
<stop stop-color="#006E88"/>
<stop offset="1" stop-color="#13B499"/>
</linearGradient>
</defs>
</svg>
