<svg width="32" height="20" viewBox="0 0 32 20" fill="none" xmlns="http://www.w3.org/2000/svg">
<path fill-rule="evenodd" clip-rule="evenodd" d="M27.5168 2.62608L17.5757 12.5671L12.01 7.0006C11.7639 6.75428 11.4298 6.61587 11.0814 6.61587C10.7332 6.61587 10.3992 6.75428 10.1528 7.0006L0.38423 16.7692C-0.128077 17.2815 -0.128077 18.1138 0.38423 18.6261C0.896789 19.1386 1.72903 19.1386 2.24134 18.6261L11.0814 9.78627L16.6469 15.3528C16.8933 15.5991 17.2273 15.7373 17.5755 15.7373C17.9239 15.7375 18.258 15.5991 18.504 15.3528L29.3737 4.48319V10.7569C29.3737 11.4818 29.9621 12.0702 30.687 12.0702C31.4116 12.0702 32 11.4818 32 10.7569V1.31304C32 1.08916 31.944 0.878132 31.8449 0.693581C31.7975 0.604835 31.7391 0.520374 31.6695 0.441965L31.6483 0.418519L31.6269 0.39608C31.6231 0.392298 31.6193 0.388264 31.6155 0.384482L31.5911 0.360783L31.5664 0.338092L31.5578 0.330277C31.4796 0.260944 31.3952 0.202452 31.3062 0.154801C31.1216 0.0559706 30.9108 0 30.687 0H21.2428C20.5182 0 19.9298 0.588195 19.9298 1.31304C19.9298 2.03788 20.5182 2.62608 21.2428 2.62608H27.5168Z" fill="url(#paint0_linear_302_1828)"/>
<defs>
<linearGradient id="paint0_linear_302_1828" x1="32" y1="9.50525" x2="0" y2="9.50525" gradientUnits="userSpaceOnUse">
<stop stop-color="#006E88"/>
<stop offset="1" stop-color="#13B499"/>
</linearGradient>
</defs>
</svg>
