<svg width="64" height="55" viewBox="0 0 64 55" fill="none" xmlns="http://www.w3.org/2000/svg">
<path d="M6.39875 46.3946H17.4481L24.4292 53.8857C24.7322 54.2097 25.1552 54.3957 25.5992 54.3957C26.0431 54.3957 26.4662 54.2127 26.7691 53.8857L33.7502 46.3946H44.7996C48.3307 46.3946 51.1986 43.5235 51.1986 39.9955V28.4754C51.1986 27.5934 50.4846 26.8764 49.5996 26.8764C48.7147 26.8764 48.0006 27.5934 48.0006 28.4754V39.9955C48.0006 41.7596 46.5666 43.1966 44.7996 43.1966H33.0544C32.6104 43.1966 32.1874 43.3796 31.8844 43.7066L25.5993 50.4506L19.3142 43.7066C19.0112 43.3826 18.5882 43.1966 18.1442 43.1966H6.39906C4.63502 43.1966 3.19799 41.7626 3.19799 39.9955V14.3962C3.19799 12.6322 4.63202 11.1951 6.39906 11.1951H37.1195C38.0044 11.1951 38.7185 10.4781 38.7185 9.59614C38.7185 8.71416 38.0045 7.99714 37.1195 7.99714L6.39906 7.99414C2.86798 7.99414 0 10.8652 0 14.3932V39.9925C0 43.5236 2.87105 46.3916 6.39906 46.3916L6.39875 46.3946Z" fill="#13B499"/>
<path d="M10.0678 31.5289C10.3798 31.8409 10.7908 31.997 11.1989 31.997C11.6099 31.997 12.0179 31.841 12.3299 31.5289L15.531 28.3279C16.158 27.7009 16.158 26.6899 15.531 26.0659L12.3299 22.8648C11.7029 22.2378 10.6919 22.2378 10.0679 22.8648C9.4409 23.4918 9.4409 24.5028 10.0679 25.1268L12.1379 27.1968L10.0679 29.2668C9.4409 29.8939 9.44083 30.9049 10.0678 31.5289Z" fill="#13B499"/>
<path d="M11.1986 38.3972H31.9979C32.8828 38.3972 33.5969 37.6802 33.5969 36.7982C33.5969 35.9162 32.8828 35.1992 31.9979 35.1992H11.1986C10.3136 35.1992 9.59961 35.9162 9.59961 36.7982C9.59961 37.6802 10.3136 38.3972 11.1986 38.3972Z" fill="#13B499"/>
<path d="M62.8275 10.4552C56.4344 8.68812 55.3064 7.56313 53.5422 1.17298C53.3533 0.479976 52.7202 0 52.0002 0C51.2802 0 50.6472 0.480006 50.4582 1.17298C48.6942 7.56306 47.5662 8.69111 41.173 10.4552C40.48 10.6472 40 11.2772 40 11.9972C40 12.7172 40.48 13.3472 41.173 13.5392C47.5661 15.3062 48.6941 16.4312 50.4582 22.8213C50.6472 23.5144 51.2802 23.9943 52.0002 23.9943C52.7202 23.9943 53.3532 23.5143 53.5422 22.8213C55.3063 16.4313 56.4343 15.3032 62.8275 13.5392C63.5205 13.3472 64.0005 12.7172 64.0005 11.9972C64.0005 11.2772 63.5205 10.6472 62.8275 10.4552ZM52.0001 17.4632C50.7821 14.7662 49.231 13.2182 46.534 11.9972C49.231 10.7792 50.782 9.2281 52.0001 6.53108C53.2181 9.2281 54.7691 10.7761 57.4662 11.9972C54.7691 13.2152 53.2181 14.7662 52.0001 17.4632Z" fill="#13B499"/>
</svg>
