<svg width="32" height="29" viewBox="0 0 32 29" fill="none" xmlns="http://www.w3.org/2000/svg">
<path d="M30.9558 12.9011H28.5642V7.47789C28.5642 6.93895 28.1263 6.46737 27.5537 6.46737H17.7516V1.78526C17.7516 0.808421 16.9768 0 15.9663 0C14.9895 0 14.1811 0.808421 14.1811 1.78526V6.46737H4.37895C3.80632 6.46737 3.36842 6.93895 3.36842 7.47789V12.9011H1.01053C0.437895 12.9011 0 13.3726 0 13.9116V21.3558C0 21.9284 0.437895 22.3663 1.01053 22.3663H3.36842V27.7895C3.36842 28.3284 3.80632 28.8 4.37895 28.8H27.5874C28.1263 28.8 28.5979 28.3621 28.5979 27.7895V22.4H30.9895C31.5284 22.4 32 21.9621 32 21.3895V13.9116C31.9663 13.3726 31.4947 12.9011 30.9558 12.9011ZM7.88211 14.08C7.88211 12.5305 9.12842 11.2842 10.6779 11.2842C12.2274 11.2842 13.4737 12.5305 13.4737 14.08C13.4737 15.6295 12.2274 16.8758 10.6779 16.8758C9.12842 16.8421 7.88211 15.6295 7.88211 14.08ZM21.4568 23.4779C21.4568 24.0168 21.0189 24.4884 20.4463 24.4884H11.4526C10.9137 24.4884 10.4421 24.0168 10.4421 23.4779V22.3663C10.4421 21.8274 10.9137 21.3558 11.4526 21.3558H20.4463C20.9853 21.3558 21.4568 21.8274 21.4568 22.3663V23.4779ZM21.2547 16.8421C19.7053 16.8421 18.459 15.5958 18.459 14.0463C18.459 12.4968 19.7053 11.2505 21.2547 11.2505C22.8042 11.2505 24.0505 12.4968 24.0505 14.0463C24.0505 15.6295 22.8042 16.8421 21.2547 16.8421Z" fill="url(#paint0_linear_302_1815)"/>
<defs>
<linearGradient id="paint0_linear_302_1815" x1="32" y1="14.4" x2="0" y2="14.4" gradientUnits="userSpaceOnUse">
<stop stop-color="#006E88"/>
<stop offset="1" stop-color="#13B499"/>
</linearGradient>
</defs>
</svg>
