<svg width="32" height="32" viewBox="0 0 32 32" fill="none" xmlns="http://www.w3.org/2000/svg">
<path fill-rule="evenodd" clip-rule="evenodd" d="M16 0C24.8306 0 32 7.16936 32 16C32 24.8306 24.8306 32 16 32C7.16936 32 0 24.8306 0 16C0 7.16936 7.16936 0 16 0ZM14.9333 6.4V16C14.9333 16.2827 15.0453 16.5547 15.2453 16.7547L20.9145 22.4225C21.3306 22.8398 22.0065 22.8398 22.4225 22.4225C22.8399 22.0065 22.8399 21.3305 22.4225 20.9145L17.0667 15.5586V6.39997C17.0667 5.81062 16.5894 5.3333 16 5.3333C15.4107 5.3333 14.9333 5.81065 14.9333 6.4Z" fill="url(#paint0_linear_302_1834)"/>
<defs>
<linearGradient id="paint0_linear_302_1834" x1="32" y1="16" x2="0" y2="16" gradientUnits="userSpaceOnUse">
<stop stop-color="#006E88"/>
<stop offset="1" stop-color="#13B499"/>
</linearGradient>
</defs>
</svg>
