<svg width="63" height="64" viewBox="0 0 63 64" fill="none" xmlns="http://www.w3.org/2000/svg">
<path d="M59.1813 21.8373C59.2064 21.6124 59.222 21.3812 59.2376 21.1656C59.247 21.1343 59.247 21.1093 59.2376 21.0781C59.3002 20.1813 59.2783 19.2877 59.1813 18.391L62.7392 15.2071C62.9551 15.0071 63.0521 14.704 62.9708 14.4165C62.5452 12.8981 61.9287 11.4014 61.1527 9.99226C61.1214 9.93602 61.0808 9.87978 61.0338 9.8329C61.0338 9.82353 61.0244 9.81728 61.0182 9.81728V9.80791C60.9306 9.72042 60.8429 9.66418 60.7365 9.63293C60.6395 9.59231 60.5363 9.57669 60.4236 9.58607L55.6485 9.81728C55.417 9.52045 55.176 9.25799 54.9601 9.0174C54.8068 8.85805 54.6566 8.68932 54.497 8.53623C54.0808 8.12066 53.6646 7.73635 53.2234 7.39264L53.4707 2.61832C53.4863 2.45897 53.4394 2.29024 53.3423 2.15589C53.3173 2.10903 53.2798 2.0684 53.2391 2.02779V2.01841H53.2297V2.00904C53.1734 1.9528 53.1108 1.91218 53.0545 1.87156C51.637 1.0873 50.1537 0.471768 48.6486 0.0468725C48.3607 -0.0343632 48.0572 0.0562467 47.8569 0.278086L44.6432 3.81507C44.4524 3.79007 44.2583 3.77445 44.0831 3.7682C43.3133 3.70571 42.5373 3.69634 41.7832 3.75883C41.5923 3.7682 41.3983 3.78383 41.2074 3.8057L38.0125 0.253114C37.8216 0.0375228 37.5149 -0.049968 37.2208 0.0281482C35.7063 0.453084 34.2074 1.05927 32.7899 1.83723C32.7336 1.86848 32.6773 1.9091 32.6303 1.95597C32.6303 1.96534 32.6209 1.96534 32.6147 1.97159C32.6147 1.97159 32.6147 1.98096 32.6053 1.98096C32.5239 2.0622 32.4676 2.14969 32.4363 2.2528C32.3956 2.34965 32.38 2.45277 32.38 2.56524L32.6116 7.33324C32.1703 7.68632 31.7479 8.07063 31.338 8.47683C31.1784 8.63618 31.0251 8.79553 30.8812 8.94863C30.6496 9.19546 30.418 9.46105 30.1833 9.74851L25.4019 9.50167C25.2423 9.4923 25.0734 9.54229 24.9294 9.62978C24.8887 9.66103 24.8418 9.69227 24.8011 9.73289L24.7917 9.74227C24.7354 9.79851 24.6947 9.861 24.654 9.91724C23.8624 11.3326 23.2522 12.8137 22.8266 14.3166C22.7453 14.604 22.836 14.9071 23.0519 15.1165L26.5942 18.316C26.4972 19.1971 26.4753 20.1001 26.5316 21.0031V21.0843C26.5473 21.3093 26.5629 21.5405 26.5879 21.7655L23.0394 24.9494C22.8235 25.14 22.7265 25.4462 22.8079 25.7399C23.2334 27.2521 23.8405 28.7488 24.6259 30.1642C24.7698 30.4204 25.0421 30.5735 25.3456 30.5641L30.127 30.3391C30.4713 30.7703 30.8655 31.1953 31.2723 31.6202C31.6823 32.0295 32.1047 32.4107 32.5553 32.7638L32.2987 37.5318C32.2831 37.8349 32.4427 38.1161 32.6993 38.2598C34.1261 39.0503 35.6063 39.669 37.1208 40.0908C37.4087 40.1721 37.7122 40.0815 37.9125 39.8659L41.1324 36.3227C42.262 36.4508 43.4167 36.4601 44.5525 36.332L47.7568 39.8846C47.9102 40.0533 48.1167 40.1471 48.3326 40.1471C48.4046 40.1471 48.4765 40.1314 48.5422 40.1158C50.0567 39.6909 51.5556 39.0847 52.9731 38.3005C53.2297 38.1568 53.3893 37.8756 53.3737 37.5818L53.1421 32.8075C53.5896 32.4545 54.0151 32.0701 54.4251 31.6702C54.8507 31.2452 55.2262 30.8297 55.5798 30.3891L60.3549 30.6359C60.6584 30.6516 60.9306 30.4922 61.084 30.236C61.8756 28.8206 62.4952 27.3333 62.9177 25.8211C62.9991 25.5399 62.9083 25.2305 62.6924 25.0306L59.1813 21.8373ZM49.7127 27.1303C47.8133 28.9613 45.3537 29.8736 42.8942 29.8736C40.322 29.8736 37.7498 28.8644 35.8285 26.8741C32.0704 22.9872 32.183 16.7724 36.0757 13.0138C39.9684 9.25517 46.1924 9.37371 49.9567 13.2606C53.7273 17.1663 53.6085 23.3805 49.7127 27.1303Z" fill="#13B499"/>
<path d="M27.6108 50.3351L30.9435 49.2946C31.2313 49.2071 31.441 48.9665 31.4879 48.6697C31.6726 47.4543 31.7195 46.2388 31.6319 45.039C31.6069 44.7421 31.4222 44.4859 31.15 44.3766L27.9144 43.0799C27.8831 42.9424 27.8424 42.8174 27.8017 42.6799C27.7924 42.6549 27.7861 42.6331 27.7767 42.6081C27.5921 41.9925 27.3511 41.3833 27.0726 40.8083L28.6998 37.7275C28.8437 37.4713 28.8187 37.1526 28.6434 36.9183C27.9394 35.9434 27.1132 35.0467 26.1839 34.2374C26.1276 34.1906 26.0713 34.1499 26.0149 34.1187C25.9993 34.1093 25.9837 34.1031 25.968 34.0937H25.9586C25.8616 34.0531 25.7677 34.0374 25.6707 34.0374H25.6144C25.5268 34.0468 25.4454 34.0687 25.3672 34.0999L22.1536 35.4685C21.9439 35.3403 21.7374 35.2372 21.5434 35.131C21.39 35.0498 21.2398 34.9716 21.0802 34.906C20.711 34.7373 20.3261 34.5873 19.96 34.4499L18.9274 31.1222C18.871 30.9628 18.774 30.8254 18.6457 30.7223C18.5894 30.6816 18.5268 30.6504 18.4705 30.6254V30.616H18.4611C18.3985 30.591 18.3422 30.5754 18.2859 30.5692C17.0749 30.3848 15.8577 30.3379 14.6655 30.4254C14.3682 30.4504 14.1116 30.6348 14.0021 30.9066L12.7035 34.1374C12.5908 34.1686 12.4875 34.1936 12.3843 34.2343C11.8241 34.3936 11.2641 34.5936 10.7414 34.8248C10.6288 34.8717 10.5318 34.9279 10.4285 34.9779L7.34312 33.3532C7.08653 33.2094 6.76735 33.2344 6.52643 33.4094C5.55642 34.1124 4.65209 34.9373 3.84156 35.8653C3.81027 35.9059 3.77898 35.9528 3.75395 36.0028C3.74456 36.0121 3.7383 36.0184 3.7383 36.0278V36.0371H3.72892C3.67259 36.1559 3.64756 36.2777 3.64756 36.3965C3.64756 36.4996 3.67259 36.5964 3.71014 36.6933L5.0807 39.9022C4.88043 40.2396 4.68955 40.5989 4.52057 40.9738C4.4486 41.1269 4.37663 41.2863 4.32969 41.43C4.23269 41.6394 4.16071 41.8612 4.0731 42.0924L0.737364 43.1267C0.577775 43.1829 0.440095 43.2798 0.336829 43.4079C0.29615 43.4641 0.264858 43.5266 0.233563 43.5828V43.5922C0.208529 43.6547 0.192883 43.7109 0.186624 43.7672C0.00200158 44.9764 -0.0449327 46.1918 0.0426804 47.3822C0.0677139 47.6791 0.252336 47.9353 0.524572 48.0446L3.76018 49.3413C3.91977 49.9662 4.13568 50.5818 4.39227 51.1723C4.40166 51.1973 4.40791 51.2192 4.4173 51.2348C4.47363 51.3723 4.53621 51.491 4.59254 51.6191L2.9654 54.6905C2.82146 54.9467 2.84649 55.2654 3.02173 55.506C3.71953 56.4746 4.54248 57.3682 5.48125 58.1869C5.70655 58.3774 6.01947 58.4274 6.2917 58.315L9.50535 56.9464C9.84331 57.1464 10.2032 57.3308 10.5881 57.5057C10.9573 57.6745 11.3422 57.8338 11.7083 57.9619L12.7503 61.2989C12.8379 61.5801 13.0789 61.7864 13.3762 61.8364C14.1866 61.9645 15.0033 62.0207 15.8107 62.0207C16.2112 62.0207 16.6118 62.0051 17.0029 61.9738C17.3002 61.9488 17.5474 61.7645 17.6663 61.4927L18.9712 58.2525C19.7472 58.0619 20.5014 57.7713 21.2304 57.4277L24.3221 59.0524C24.5787 59.1961 24.8979 59.1711 25.1388 58.9961C26.1088 58.2931 27.0037 57.4682 27.8142 56.5403C28.0051 56.3153 28.0614 56.0029 27.9519 55.731L26.5813 52.5222C26.7816 52.1785 26.9725 51.8191 27.1415 51.441C27.3323 51.0786 27.4763 50.7038 27.6108 50.3351ZM22.6386 49.4946C21.7656 51.3099 20.2354 52.6785 18.3204 53.3409C17.5099 53.6221 16.6619 53.7658 15.8295 53.7658C14.7093 53.7658 13.5859 53.519 12.5438 53.0065C10.7258 52.1348 9.35517 50.5975 8.69181 48.6947C8.02844 46.7919 8.14733 44.7422 9.02976 42.9269C10.8322 39.1837 15.3664 37.6089 19.1249 39.4149C22.8767 41.2334 24.4566 45.751 22.6386 49.4946Z" fill="#13B499"/>
<path d="M54.3586 49.8234L51.9867 49.0235C51.9617 48.9517 51.946 48.886 51.9241 48.8236C51.9147 48.8079 51.8991 48.7829 51.8928 48.7611C51.7332 48.3361 51.5486 47.9206 51.339 47.5206L52.3716 45.2585C52.4999 44.9867 52.4592 44.6742 52.2684 44.443C51.6989 43.74 51.0354 43.0901 50.2907 42.5308C50.2656 42.5058 50.2437 42.4902 50.2093 42.4746L50.1999 42.4652C50.081 42.4027 49.959 42.3621 49.8401 42.3621C49.7024 42.3465 49.5835 42.3777 49.4646 42.4433L47.2209 43.5556C47.0833 43.4931 46.9643 43.4275 46.8298 43.3713C46.7109 43.3244 46.5982 43.2682 46.4699 43.2182C46.2227 43.1151 45.9568 43.0276 45.6939 42.9557L44.8209 40.6123C44.7646 40.4592 44.6613 40.3405 44.5393 40.2436C44.4673 40.1968 44.3859 40.1561 44.3077 40.1311H44.2983C44.2514 40.1155 44.2013 40.1062 44.145 40.0999C43.225 40.0124 42.3019 40.028 41.4132 40.1561C41.1159 40.1968 40.875 40.3967 40.7811 40.6748L39.98 43.0338C39.9331 43.0494 39.883 43.0651 39.8423 43.0901C39.4105 43.2338 39.0006 43.4088 38.6157 43.6087C38.5688 43.6337 38.5187 43.6556 38.4718 43.69L36.1969 42.6495C35.934 42.5214 35.6117 42.562 35.3865 42.7526C34.673 43.3213 34.0315 43.9931 33.4652 44.7273C33.4401 44.7586 33.4182 44.7992 33.3932 44.8305C33.3932 44.8398 33.3838 44.8461 33.3838 44.8554V44.8648H33.3744C33.3275 44.9773 33.2931 45.0898 33.2931 45.2023V45.2429C33.3025 45.3554 33.3244 45.4585 33.3744 45.5616L34.4884 47.7925C34.3695 48.0331 34.2568 48.28 34.1504 48.5456C34.1035 48.6643 34.0534 48.7861 34.0221 48.8986C33.9658 49.0424 33.9189 49.1798 33.8782 49.3236L31.5376 50.1953C31.3842 50.2515 31.2747 50.3484 31.1777 50.4577C31.137 50.514 31.0963 50.5765 31.0744 50.6421V50.6515C31.0431 50.7233 31.0275 50.7952 31.0275 50.8608C30.9305 51.7794 30.9461 52.7012 31.0744 53.5979C31.1151 53.8854 31.3154 54.1353 31.5939 54.2291L33.9658 55.0289C34.1097 55.4601 34.2787 55.8757 34.4852 56.2912C34.4946 56.3068 34.5009 56.3318 34.5102 56.3475C34.5415 56.41 34.5822 56.4756 34.6135 56.5318L33.5715 58.7939C33.4526 59.0658 33.4901 59.3782 33.6841 59.6094C34.2536 60.3124 34.917 60.9623 35.6555 61.5279C35.8964 61.7028 36.2156 61.7372 36.4815 61.6091L38.7158 60.4968C38.9568 60.6249 39.204 60.728 39.4699 60.8342C39.7265 60.9373 39.9831 61.0248 40.2554 61.0967L41.1284 63.4401C41.2316 63.7213 41.482 63.9213 41.7761 63.9369C42.1766 63.9775 42.5772 63.9994 42.9621 63.9994C43.4909 63.9994 44.0198 63.9588 44.5329 63.8869C44.8302 63.8463 45.0711 63.6463 45.165 63.3682L45.9661 60.9999C46.4793 60.8311 46.983 60.6155 47.465 60.3531L49.7398 61.3936C50.0027 61.5217 50.325 61.4811 50.5503 61.2905C51.2544 60.7218 51.9052 60.0594 52.4716 59.3157C52.6468 59.0845 52.6812 58.7627 52.5529 58.5002L51.439 56.2599C51.5673 56.0193 51.6705 55.7725 51.7769 55.5069C51.8896 55.2507 51.9678 54.9945 52.0491 54.7227L54.3898 53.8603C54.6714 53.7572 54.8717 53.501 54.8936 53.2042C54.9906 52.2761 54.975 51.3482 54.8467 50.4515C54.8404 50.1671 54.6402 49.9203 54.3586 49.8234ZM48.3662 54.254C47.4368 56.485 45.2652 57.8441 42.9746 57.8441C42.2298 57.8441 41.4851 57.691 40.756 57.3973C39.3135 56.8068 38.1995 55.6789 37.5987 54.2447C37.0073 52.8042 37.0073 51.2202 37.5987 49.7891C38.1995 48.3487 39.3197 47.2364 40.756 46.6458C42.1986 46.0553 43.785 46.0553 45.2182 46.6458C46.6608 47.2364 47.7748 48.3643 48.3662 49.7985C48.967 51.2389 48.967 52.823 48.3662 54.254Z" fill="#13B499"/>
</svg>
