<svg width="41" height="48" viewBox="0 0 41 48" fill="none" xmlns="http://www.w3.org/2000/svg">
<path d="M38.9577 7.95368H29.7051C29.2615 5.71207 28.0537 3.69385 26.288 2.24337C24.5223 0.792881 22.308 0 20.0229 0C17.7378 0 15.5235 0.792881 13.7578 2.24337C11.9921 3.69385 10.7843 5.71207 10.3407 7.95368H1.08812C0.799537 7.95369 0.522778 8.06834 0.318719 8.2724C0.11466 8.47646 1.44649e-05 8.75322 3.68012e-08 9.0418V46.9119C-3.71328e-05 47.0548 0.0280824 47.1963 0.0827524 47.3283C0.137422 47.4604 0.217572 47.5803 0.31862 47.6814C0.419669 47.7824 0.539637 47.8626 0.671671 47.9172C0.803704 47.9719 0.945216 48 1.08812 48H38.9577C39.1006 48 39.2421 47.9719 39.3741 47.9172C39.5062 47.8626 39.6261 47.7824 39.7272 47.6814C39.8282 47.5803 39.9084 47.4604 39.963 47.3283C40.0177 47.1963 40.0458 47.0548 40.0458 46.9119V9.0418C40.0458 8.75322 39.9311 8.47646 39.7271 8.2724C39.523 8.06834 39.2463 7.95369 38.9577 7.95368ZM20.0229 2.17623C21.7283 2.17927 23.3844 2.74818 24.7317 3.79374C26.079 4.83931 27.0412 6.30242 27.4675 7.95368H12.5783C13.0046 6.30242 13.9668 4.83931 15.3141 3.79374C16.6614 2.74818 18.3175 2.17927 20.0229 2.17623ZM37.8696 45.8238H2.17624V10.1299H10.1501V14.6211C10.1501 14.9097 10.2648 15.1864 10.4688 15.3905C10.6729 15.5945 10.9497 15.7092 11.2382 15.7092C11.5268 15.7092 11.8036 15.5945 12.0077 15.3905C12.2117 15.1864 12.3264 14.9097 12.3264 14.6211V10.1299H27.7194V14.6211C27.7194 14.9097 27.8341 15.1864 28.0381 15.3905C28.2422 15.5945 28.519 15.7092 28.8076 15.7092C29.0961 15.7092 29.3729 15.5945 29.577 15.3905C29.781 15.1864 29.8957 14.9097 29.8957 14.6211V10.1299H37.8696V45.8238Z" fill="url(#paint0_linear_844_14)"/>
<defs>
<linearGradient id="paint0_linear_844_14" x1="20.0229" y1="48" x2="20.0229" y2="0" gradientUnits="userSpaceOnUse">
<stop stop-color="#006E88"/>
<stop offset="1" stop-color="#13B499"/>
</linearGradient>
</defs>
</svg>
